# Blender v3.0.0 OBJ File: ''
# www.blender.org
mtllib cube.mtl
o Cube
v 1.000000 1.000000 -1.000000
v 1.000000 -1.000000 -1.000000
v 1.000000 1.000000 1.000000
v 1.000000 -1.000000 1.000000
v -1.000000 1.000000 -1.000000
v -1.000000 -1.000000 -1.000000
v -1.000000 1.000000 1.000000
v -1.000000 -1.000000 1.000000
vt 0.875000 0.500000
vt 0.625000 0.750000
vt 0.625000 0.500000
vt 0.375000 1.000000
vt 0.375000 0.750000
vt 0.625000 0.000000
vt 0.375000 0.250000
vt 0.375000 0.000000
vt 0.375000 0.500000
vt 0.125000 0.750000
vt 0.125000 0.500000
vt 0.625000 0.250000
vt 0.875000 0.750000
vt 0.625000 1.000000
vn -0.5773 0.5773 -0.5773
vn 0.5773 0.5773 0.5773
vn 0.5773 0.5773 -0.5773
vn -0.5773 -0.5773 0.5773
vn 0.5773 -0.5773 0.5773
vn -0.5773 0.5773 0.5773
vn -0.5773 -0.5773 -0.5773
vn 0.5773 -0.5773 -0.5773
usemtl Material
s 1
f 5/1/1 3/2/2 1/3/3
f 3/2/2 8/4/4 4/5/5
f 7/6/6 6/7/7 8/8/4
f 2/9/8 8/10/4 6/11/7
f 1/3/3 4/5/5 2/9/8
f 5/12/1 2/9/8 6/7/7
f 5/1/1 7/13/6 3/2/2
f 3/2/2 7/14/6 8/4/4
f 7/6/6 5/12/1 6/7/7
f 2/9/8 4/5/5 8/10/4
f 1/3/3 3/2/2 4/5/5
f 5/12/1 1/3/3 2/9/8
